<?xml version="1.0" encoding="UTF-8" standalone="no"?>
<svg
   xmlns:dc="http://purl.org/dc/elements/1.1/"
   xmlns:cc="http://creativecommons.org/ns#"
   xmlns:rdf="http://www.w3.org/1999/02/22-rdf-syntax-ns#"
   xmlns:svg="http://www.w3.org/2000/svg"
   xmlns="http://www.w3.org/2000/svg"
   xmlns:sodipodi="http://sodipodi.sourceforge.net/DTD/sodipodi-0.dtd"
   xmlns:inkscape="http://www.inkscape.org/namespaces/inkscape"
   width="auto"
   height="auto"
   viewBox="0 0 32 32"
   version="1.1"
   id="svg8"
   inkscape:version="1.0.1 (3bc2e813f5, 2020-09-07)"
   sodipodi:docname="detail-32.svg">
  <defs
     id="defs2" />
  <sodipodi:namedview
     id="base"
     pagecolor="#ffffff"
     bordercolor="#666666"
     borderopacity="1.0"
     inkscape:pageopacity="0.0"
     inkscape:pageshadow="2"
     inkscape:zoom="2.8"
     inkscape:cx="78.431522"
     inkscape:cy="49.135131"
     inkscape:document-units="mm"
     inkscape:current-layer="layer1"
     inkscape:document-rotation="0"
     showgrid="true"
     units="mm"
     inkscape:window-width="1440"
     inkscape:window-height="837"
     inkscape:window-x="-8"
     inkscape:window-y="-8"
     inkscape:window-maximized="1">
    <inkscape:grid
       type="xygrid"
       id="grid46"
       units="mm"
       spacingx="0.99999997"
       spacingy="0.99999997"
       dotted="false"
       empspacing="4" />
  </sodipodi:namedview>
  <metadata
     id="metadata5">
    <rdf:RDF>
      <cc:Work
         rdf:about="">
        <dc:format>image/svg+xml</dc:format>
        <dc:type
           rdf:resource="http://purl.org/dc/dcmitype/StillImage" />
        <dc:title />
      </cc:Work>
    </rdf:RDF>
  </metadata>
  <g
     inkscape:label="Layer 1"
     inkscape:groupmode="layer"
     id="layer1">
    <path
       id="rect229"
       style="fill:#000000;stroke-width:1.42857"
       d="M 4.3652344 0 C 1.9469768 5.9211894e-16 5.9211895e-16 1.9469768 0 4.3652344 L 0 71.224609 C 5.9211894e-16 73.642868 1.9469768 75.589844 4.3652344 75.589844 L 52.914062 75.589844 L 52.914062 64.791016 L 14.435547 64.791016 C 12.420332 64.791016 10.798828 63.169511 10.798828 61.154297 L 10.798828 14.435547 C 10.798828 12.420332 12.420332 10.798828 14.435547 10.798828 L 61.154297 10.798828 C 63.169511 10.798828 64.791016 12.420332 64.791016 14.435547 L 64.791016 52.914062 L 75.589844 52.914062 L 75.589844 4.3652344 C 75.589844 1.9469768 73.642868 5.9211895e-16 71.224609 0 L 4.3652344 0 z "
       transform="scale(0.26458333)" />
    <path
       id="rect229-8"
       style="fill:#000000;stroke-width:1.42857"
       d="M 49.71875 45.353516 C 47.300491 45.353516 45.353516 47.300491 45.353516 49.71875 L 45.353516 116.58008 C 45.353516 118.99834 47.300491 120.94531 49.71875 120.94531 L 116.58008 120.94531 C 118.99834 120.94531 120.94531 118.99834 120.94531 116.58008 L 120.94531 49.71875 C 120.94531 47.300491 118.99834 45.353516 116.58008 45.353516 L 49.71875 45.353516 z M 59.791016 56.152344 L 106.50781 56.152344 C 108.52303 56.152344 110.14648 57.775802 110.14648 59.791016 L 110.14648 106.50781 C 110.14648 108.52303 108.52303 110.14648 106.50781 110.14648 L 59.791016 110.14648 C 57.775802 110.14648 56.152344 108.52303 56.152344 106.50781 L 56.152344 59.791016 C 56.152344 57.775802 57.775802 56.152344 59.791016 56.152344 z "
       transform="scale(0.26458333)" />
    <rect
       style="fill:#000000;stroke-width:0.377976"
       id="rect261"
       width="2.8571424"
       height="20"
       x="20.571428"
       y="12"
       ry="0.7142843" />
    <rect
       style="fill:#000000;stroke-width:0.377976"
       id="rect265"
       width="19.999998"
       height="2.8571427"
       x="12"
       y="20.571428"
       ry="0.7142843" />
  </g>
</svg>
