<?xml version="1.0" encoding="UTF-8" standalone="no"?>
<svg
   xmlns:dc="http://purl.org/dc/elements/1.1/"
   xmlns:cc="http://creativecommons.org/ns#"
   xmlns:rdf="http://www.w3.org/1999/02/22-rdf-syntax-ns#"
   xmlns:svg="http://www.w3.org/2000/svg"
   xmlns="http://www.w3.org/2000/svg"
   xmlns:sodipodi="http://sodipodi.sourceforge.net/DTD/sodipodi-0.dtd"
   xmlns:inkscape="http://www.inkscape.org/namespaces/inkscape"
   width="64"
   height="64"
   viewBox="0 0 16.933333 16.933334"
   version="1.1"
   id="svg8"
   sodipodi:docname="logo.svg"
   inkscape:version="1.0.1 (3bc2e813f5, 2020-09-07)">
  <defs
     id="defs2" />
  <sodipodi:namedview
     id="base"
     pagecolor="#ffffff"
     bordercolor="#666666"
     borderopacity="1.0"
     inkscape:pageopacity="0.0"
     inkscape:pageshadow="2"
     inkscape:zoom="4.6503511"
     inkscape:cx="37.466185"
     inkscape:cy="19.451451"
     inkscape:document-units="px"
     inkscape:current-layer="layer1"
     inkscape:document-rotation="0"
     showgrid="false"
     units="px"
     inkscape:window-width="1440"
     inkscape:window-height="837"
     inkscape:window-x="-8"
     inkscape:window-y="-8"
     inkscape:window-maximized="1"
     showguides="true"
     showborder="true"
     inkscape:showpageshadow="true"
     inkscape:snap-global="false">
    <inkscape:grid
       type="xygrid"
       id="grid10"
       empspacing="2"
       snapvisiblegridlinesonly="false" />
  </sodipodi:namedview>
  <metadata
     id="metadata5">
    <rdf:RDF>
      <cc:Work
         rdf:about="">
        <dc:format>image/svg+xml</dc:format>
        <dc:type
           rdf:resource="http://purl.org/dc/dcmitype/StillImage" />
        <dc:title></dc:title>
      </cc:Work>
    </rdf:RDF>
  </metadata>
  <g
     inkscape:label="Layer 1"
     inkscape:groupmode="layer"
     id="layer1"
     style="display:inline">
    <path
       style="opacity:0.997;fill:#8ac36e;fill-opacity:1;stroke:none;stroke-width:0.529167;stroke-linecap:butt;stroke-linejoin:miter;stroke-miterlimit:4;stroke-dasharray:none;stroke-opacity:1"
       d="M 0.39916565,0.27936927 C 0.98844174,2.17758 0.21304055,3.7962217 0.32052674,5.3176604 0.44039077,7.0143068 0.84885768,8.6836036 1.0761416,10.085083 c 0.5354847,1.297009 -0.60990309,2.188441 -0.70158182,3.207234 -0.12115538,0.758506 0.42726782,1.188024 0.50113064,1.837478 0.0688593,0.461234 -0.27355629,1.056944 -0.46772161,1.469983 0.46278912,0.01178 1.54252369,-0.163339 1.69203139,-0.163339 h 1.1358956 c 0.1605666,0 0.3412183,-0.01999 0.5011303,0 0.3779766,0.04725 0.7112804,0.27158 1.1024867,0.200452 0.5857698,-0.106504 3.2904909,0.136029 3.8437977,-0.07151 0.046632,-0.01749 0.085319,-0.05474 0.1336349,-0.06682 0.1207442,-0.03019 0.3111336,0 0.4343128,0 0.3419247,0 0.695044,-0.02839 1.0356698,0 0.25714,0.02143 0.511249,0.0788 0.768399,0.100226 0.744264,0.06202 1.364713,-0.17102 2.071339,-0.334087 1.063755,-0.304439 2.055877,0.3662 3.071921,0.365817 0.184737,-0.220988 0.367682,-0.840028 0.387763,-1.531071 -0.01252,-0.614903 -0.695494,-1.159088 -0.706332,-2.078461 -0.0072,-0.723378 0.727294,-1.694686 0.652657,-2.838348 -0.01179,-0.9226798 -0.539793,-3.9954159 -0.566266,-4.8425823 -0.06569,-2.5456028 0.952674,-2.3974924 0.626831,-4.95085898 -0.263118,0.0397116 -0.873666,0.28236665 -1.061146,0.34201935 -0.457703,0.1456328 -0.460111,0.1171902 -1.03567,0.1336348 -0.581605,0.016617 -1.200285,0.035577 -1.77066,-0.1002261 -0.447408,-0.1065221 -0.874739,-0.3131853 -1.336351,-0.3674926 -0.497475,-0.0585265 -1.226478,0.17752404 -1.7266023,0.17752404 -0.2824912,0 -1.3895453,-0.1815491 -1.6704347,-0.1503391 C 7.8795029,0.43686111 6.5852846,0.71369794 6.4722806,0.72499794 6.2287641,0.74934994 5.1486975,0.58909645 4.9020722,0.60806755 4.6058026,0.63086155 3.3746854,0.81425572 3.0775334,0.81425572 2.1153765,0.75222312 1.1779431,0.28258399 0.39916565,0.27936927 Z"
       id="path20"
       sodipodi:nodetypes="csccccssssssssccccccccsscssssscc" />
    <path
       id="path866"
       style="opacity:0.997;fill:#35abc8;fill-opacity:1;stroke:#23859c;stroke-width:0.529167;stroke-miterlimit:4;stroke-dasharray:none;stroke-opacity:1"
       d="m 10.394345,10.394345 c -0.4715891,0.04287 -0.8075527,0.15835 -1.1811754,0.425223 -0.1705112,0.121794 -0.1143505,0.137221 -0.236235,0.283483 -0.181455,0.217745 -0.4059799,0.443317 -0.5197174,0.708705 -0.1046998,0.244299 -0.124878,0.546759 -0.1889881,0.803199 -0.1842942,0.613955 -0.1780157,1.345252 -0.094494,1.653646 0.050478,0.201911 0.1877118,0.3601 0.2834822,0.519717 0.095159,0.241715 0.2243593,0.42907 0.3307293,0.661459 0.1718044,0.256082 0.3482487,0.742303 0.5322456,1.020106 0.2829791,-0.0018 0.5859213,-0.04221 0.8379178,-0.0029 0.39328,0.01873 0.755201,0.07838 1.147767,0.108578 0.27588,0.02122 0.543572,-0.02237 0.836608,-0.08638 0.813678,-0.150681 0.876203,-0.335276 1.695165,-0.333594 0.860729,0.02039 1.547305,0.324349 2.360937,0.474898 0.259084,-0.42518 0.309466,-1.223159 0.290631,-1.842175 -0.344386,-0.545772 -0.603761,-1.268089 -0.626022,-1.819012 0.0318,-0.426467 0.231525,-0.923468 0.378996,-1.374388 l 0.198932,-0.679865 C 14.982101,9.8851768 15.881762,10.315321 14.64846,9.5958943 14.21305,9.420534 13.975239,9.2506829 13.461636,9.1826268 13.11349,9.1439007 12.840017,9.3193914 12.845665,8.8891781 12.840465,8.8283111 12.840065,8.766848 12.830125,8.7065775 12.804135,8.5491726 12.736015,8.3571677 12.598343,8.2604453 12.524243,8.2083853 12.294547,8.1615283 12.223007,8.1437809 11.52167,8.0068369 10.810329,7.9222872 10.116192,7.7483673 10.01382,7.7212755 9.6935328,7.6598594 9.6040592,7.5770107 9.5425097,7.5200186 9.5260691,7.4823499 9.4789317,7.408868 9.4566591,7.3617306 9.4314149,7.3158857 9.4121136,7.2674556 9.2628621,6.8929598 9.2361545,6.4840564 9.2286261,6.085524 9.2356349,5.5859044 9.233333,5.0825423 9.1334062,4.5906965 9.114126,4.5127346 9.0987805,4.4336924 9.0755633,4.3568109 8.9606458,3.9762734 8.7634626,3.6179159 8.4935593,3.3262374 8.3519154,3.1873031 8.3211658,3.1429573 8.1532975,3.0349007 7.8415596,2.8342357 7.4750006,2.7507107 7.1283501,2.6329969 6.6547139,2.4683444 6.1630641,2.3102549 5.7506486,2.0169591 5.5904825,1.8987472 5.4231468,1.7893405 5.3042565,1.6252702 5.1701292,1.4456367 5.092726,0.92386401 5.0850864,0.69692901 4.1583945,0.60929614 3.5994182,0.83562871 3.0775334,0.81425572 3.1148814,1.0230424 3.4288575,1.6495603 3.4389855,1.8602811 3.4589245,2.1218285 3.569125,2.3517254 3.7173147,2.5631043 3.852635,2.7311675 4.0016756,2.890349 4.1780061,3.0155128 c 0.047734,0.022844 0.094365,0.048151 0.143201,0.068532 0.2528562,0.105524 0.5190601,0.1817394 0.7791169,0.2665539 0.3548949,0.1157452 0.2948139,0.096658 0.6462088,0.21766 0.3181493,0.1222312 0.6464544,0.2319065 0.9310532,0.4244504 0.1498891,0.1014066 0.1789991,0.1375394 0.3120453,0.260195 0.3517614,0.3452534 0.489681,0.7019144 0.6020377,1.1703513 0.088115,0.4763733 0.087494,0.9629018 0.1031975,1.4454735 0.00857,0.4809585 0.072923,0.9545642 0.205014,1.4167217 0.031985,0.075929 0.084857,0.253069 0.1576411,0.306432 0.1667674,0.1222674 0.4523457,0.1236427 0.6445422,0.1456655 0.6264691,0.062967 1.2591518,0.1321705 1.8659182,0.3085939 0.07834,0.022778 0.15478,0.051642 0.23217,0.077463 0.121459,0.055335 0.274392,0.094319 0.352783,0.2143612 0.07421,0.1136372 0.05855,0.070813 0.07041,0.2006504 -0.02018,0.3996644 0.292679,0.4983064 -0.0258,0.7139874 -0.204063,0.136042 -0.568015,0.120361 -0.8032,0.141741 z"
       sodipodi:nodetypes="ssssccccccscccccccccccsccscsccscscccccccccscsccccscscsccs" />
    <path
       id="path877"
       style="opacity:0.997;fill:none;fill-opacity:1;stroke:#239c3b;stroke-width:0.529167;stroke-miterlimit:4;stroke-dasharray:none;stroke-opacity:1"
       d="M 13.230097,8.4677964 C 13.241053,8.2176972 12.979455,8.0025564 12.865851,7.8403491 12.791751,7.7882891 12.213873,7.6612546 12.142333,7.6435072 11.440996,7.5065632 11.077837,7.502191 10.3837,7.3282711 10.092909,7.2785613 10.029531,7.3033443 9.8813524,7.104226 9.6361843,6.6789071 9.7139207,6.0536424 9.7132779,5.6630405 9.721418,5.2120375 9.4667398,4.0303792 9.4431081,3.9189095 9.3281906,3.538372 9.194811,3.3458878 8.9249077,3.0542093 8.7832638,2.915275 8.5886743,2.7228611 8.420806,2.6148045 8.1090681,2.4141395 7.7425091,2.3306145 7.3958586,2.2129007 6.9222224,2.0482482 6.4305726,1.8901587 6.0181571,1.5968629 5.857991,1.478651 5.6906553,1.3692443 5.571765,1.205174 5.4376377,1.0255405 5.4165884,1.0711303 5.4089488,0.84419532 4.4822569,0.75656245 3.5994182,0.83562871 3.0775334,0.81425572 3.1148814,1.0230424 3.1493084,2.0535623 3.1594364,2.2642831 3.1793754,2.5258305 3.2895759,2.7557274 3.4377656,2.9671063 3.5730859,3.1351695 3.7221265,3.294351 3.898457,3.4195148 c 0.047734,0.022844 0.094365,0.048151 0.143201,0.068532 0.2528562,0.105524 0.5190601,0.1817394 0.7791169,0.2665539 0.3548949,0.1157452 0.2948139,0.096658 0.6462088,0.21766 0.3181493,0.1222312 0.510624,0.032936 0.7952228,0.2254795 0.1498891,0.1014066 0.1789991,0.1375394 0.3120453,0.260195 0.3517614,0.3452534 0.489681,0.7019144 0.6020377,1.1703513 0.088115,0.4763733 0.087494,0.9629018 0.1031975,1.4454735 0.00857,0.4809585 0.1582761,1.1206794 0.2903671,1.5828369 0.031985,0.075929 0.084857,0.253069 0.1576411,0.306432 0.1667674,0.1222674 0.4523457,0.1236427 0.6445422,0.1456655 0.6264691,0.062967 0.6625333,0.063556 1.2692997,0.2399793 0.3078018,0.059295 0.4527879,0.1195852 0.8440079,0.1092704 0.219297,0.019282 0.434453,0.3218926 0.408382,0.5424249 -0.204063,0.136042 -0.715744,0.129499 -0.9509284,0.150879 -0.4715891,0.04287 -0.8075527,0.15835 -1.1811754,0.425223 -0.1705112,0.121794 -0.1143505,0.137221 -0.236235,0.283483 -0.181455,0.217745 -0.4059799,0.443317 -0.5197174,0.708705 -0.1046998,0.244299 -0.124878,0.546759 -0.1889881,0.803199 -0.1842942,0.613955 -0.2357723,1.464011 -0.1522506,1.772405 0.050478,0.201911 0.05792,0.37334 0.1536906,0.532957 0.095159,0.241715 0.2243593,0.42907 0.3307293,0.661459 0.1718044,0.256082 0.3482487,0.742303 0.5322456,1.020106 0.2829791,-0.0018 0.5859213,-0.04221 0.8379178,-0.0029 0.39328,0.01873 1.3942956,0.189478 1.7868616,0.219676 0.27588,0.02122 0.825304,-0.506476 1.104116,-0.506476 0.842126,-0.07245 0.876203,-0.335276 1.695165,-0.333594 0.796722,0.198192 0.95621,0.253548 1.769842,0.404097 0.259084,-0.42518 0.633053,-0.732262 0.614218,-1.351278 -0.344386,-0.545772 -0.603761,-1.268089 -0.626022,-1.819012 0.0318,-0.426467 0.430457,-1.603333 0.577928,-2.054253 l 0.0142,-0.667891 C 14.996304,9.2172852 16.14927,9.8952248 14.915968,9.1757981 14.480558,9.0004378 14.242747,8.8305867 13.729144,8.7625306 13.380998,8.7238045 13.224449,8.8980097 13.230097,8.4677964 Z"
       sodipodi:nodetypes="ccccccccscccccccccscsccccsccccssssccccccscccccccccc" />
    <path
       style="fill:#ffe680;stroke:#938143;stroke-width:0.529167;stroke-linecap:butt;stroke-linejoin:miter;stroke-miterlimit:4;stroke-dasharray:none;stroke-opacity:1"
       d="m 1.3192474,8.2542244 c 0.3473229,0.074931 0.6892238,0.1821447 1.0419688,0.2247934 0.5013008,0.06061 1.1082855,0.055988 1.5128521,0.077867 0.2412669,0.013048 -0.4331068,1.6745362 -0.4506259,1.9894492 -0.038396,0.690191 0.082054,1.394242 -0.024389,2.079263 -0.060202,0.387432 0.00831,0.805326 -0.081503,1.182143 -0.073023,0.306367 0.1069062,0.693218 0.010909,0.992128 -0.055838,0.173861 -0.090465,0.367013 -0.088255,0.567968 0.00196,0.177296 -0.043853,0.308935 -0.04205,0.472961 1.73e-4,0.01575 0.014528,0.04005 5.292e-4,0.04725 -0.1119854,0.05754 -0.9328937,0.361068 -1.1268918,0.363198 C 1.4809035,16.191634 1.0463633,16.086129 0.65534855,16.436514 0.59240195,16.374934 0.96010217,15.235884 1.0160914,15.061551 1.1178261,14.744767 1.112487,14.457613 0.96001654,14.258909 0.90571099,14.10449 0.74140843,13.958022 0.67239611,13.884081 0.62673702,13.73415 0.59578625,13.531697 0.57271351,13.412679 0.7782615,12.985695 0.70101028,12.457172 0.9350845,11.991199 1.0871556,11.724276 1.2915376,11.429797 1.3555927,11.08334 1.3539727,10.935676 1.5984963,10.554574 1.5321203,10.425388 1.4617307,10.288391 1.3733678,10.169593 1.2917412,10.050022 1.2504865,9.9895902 1.166719,9.6628351 1.1448145,9.5791389 1.1309387,9.5261199 1.078378,8.5004491 1.0856236,8.4930423 c 0.011013,-0.011258 0.036231,0.010739 0.047244,-5.291e-4 0.1138478,-0.1163791 -0.1380099,0.010612 0.1863796,-0.2382986 z"
       id="path879"
       sodipodi:nodetypes="cscsssscscccccccccssssccc" />
    <path
       style="fill:#c4c8b7;stroke:#808767;stroke-width:0.529167;stroke-linecap:butt;stroke-linejoin:miter;stroke-miterlimit:4;stroke-dasharray:none;stroke-opacity:1"
       d="m 10.164509,0.52612036 c -0.06548,0.0739497 -0.1772934,0.43701921 -0.2302482,0.54590504 -0.037925,0.077983 -0.036105,0.4845322 0.00623,0.56693 0.066504,0.1294303 0.2389952,0.2618126 0.3348642,0.3743174 0.06146,0.072121 0.261868,0.3351813 0.382109,0.373798 0.192233,0.061738 0.431178,0.1555713 0.61729,0.2767126 0.294304,0.3989019 -0.04866,0.8218467 -0.175472,1.2304162 0.04766,0.092765 0.420731,0.056661 0.520724,0.088775 0.148793,0.047787 0.220364,0.2481448 0.286582,0.2803485 0.211982,0.1341851 0.299076,0.5345387 0.38678,0.7989856 0.01372,0.039697 -0.01751,0.104629 0.0016,0.1417325 0.101381,0.1973101 0.420516,-0.00926 0.568488,0.1354995 0.02472,0.024186 0.0246,0.1642727 0.04932,0.1884574 0.02656,0.025982 0.109834,0.075061 0.14329,0.1401742 0.03048,0.059319 -0.04274,0.2386097 0.0031,0.283465 0.04596,0.044961 0.269451,0.076646 0.284504,0.091372 0.01126,0.011012 -0.0067,0.033236 5.29e-4,0.047244 0.08272,0.1609971 0.288011,0.2343727 0.428834,0.3260344 0.06751,0.043944 0.0595,0.1049409 0.09605,0.1406935 0.0602,0.058891 0.297684,0.2094907 0.333826,0.2798292 0.03411,0.066376 0.0026,0.095997 0.0488,0.1412128 0.02252,0.022027 0.06616,-0.014814 0.09449,-0.00103 0.103949,0.050554 0.176668,0.1508937 0.285542,0.1858602 0.221844,0.071248 0.525228,-0.016174 0.756426,0.038933 0.03426,0.00817 0.06334,0.030804 0.09501,0.046206 0.04724,-5.291e-4 0.0953,-0.010313 0.141733,-0.00156 0.06649,0.012541 0.510339,0.065264 0.567709,0.064633 -0.132504,-0.7083946 -0.170582,-1.5229605 -0.223704,-2.0765356 -0.02748,-0.6011143 0.03059,-1.2685288 0.228569,-1.7743833 0.175054,-0.4833215 0.165125,-0.9641454 0.351108,-1.4304341 0.03217,-0.3304521 0.07225,-0.5647996 0.018,-0.8462602 -0.05649,-0.25493761 0.02318,-0.49345387 0.02665,-0.79425648 -0.829328,0.22206584 -0.73089,0.26711295 -1.357769,0.44735888 -1.064151,0.0824927 -1.98269,0.11159944 -2.907335,-0.13341009 -0.434787,-0.22246812 -0.730566,-0.2737994 -1.113484,-0.28306962 -0.58932,0.006992 -0.709005,0.0413643 -1.050143,0.10604547 z"
       id="path872"
       sodipodi:nodetypes="csccsccscccssscscsccccsccccccccccccc" />
    <path
       style="opacity:0.997;fill:none;stroke:#ced0ab;stroke-width:0.500886;stroke-linecap:butt;stroke-linejoin:miter;stroke-miterlimit:4;stroke-dasharray:none;stroke-opacity:1"
       d="M 0.79187436,0.79375 C 1.3544345,2.5752527 0.6141875,4.0943751 0.7168011,5.5222707 0.83123084,7.1146019 1.2211792,8.681265 1.4381588,9.9965771 1.9493662,11.213842 0.85590676,12.050466 0.76838439,13.00662 0.65272185,13.718491 1.1762813,14.1216 1.2467954,14.731124 1.3125326,15.163999 0.98564131,15.723084 0.80027883,16.110728 1.2420865,16.12178 2.2728694,15.957432 2.4155988,15.957432 h 1.0843977 c 0.153287,0 0.3257486,-0.01876 0.4784107,0 0.3608402,0.04434 0.6790332,0.254882 1.0525033,0.188127 0.5592129,-0.09995 3.1413106,0.127665 3.6695323,-0.06711 0.044518,-0.01641 0.081451,-0.05137 0.1275762,-0.06271 0.1152701,-0.02833 0.2970278,0 0.4146225,0 0.3264225,0 0.6635325,-0.02665 0.9887155,0 0.245482,0.02012 0.48807,0.07396 0.733562,0.09407 0.710522,0.05821 1.302841,-0.160505 1.977432,-0.313547 1.015527,-0.28572 1.96267,0.343686 2.932649,0.343326 0.176361,-0.2074 0.351012,-0.788379 0.370183,-1.436936 -0.01196,-0.577096 -0.663963,-1.087823 -0.674309,-1.95067 -0.0068,-0.678902 0.69432,-1.590492 0.623067,-2.663837 C 16.18269,9.2221908 15.678622,6.3383768 15.653348,5.5432969 15.590633,3.1542059 16.562831,3.2932101 16.25176,0.89683267 16.000571,0.93410229 15.417704,1.1618385 15.238724,1.2178236 14.801772,1.3545024 14.799473,1.3278085 14.250007,1.3432421 13.694771,1.3588369 13.10414,1.3766313 12.559624,1.2491786 12.1325,1.1492062 11.724543,0.95524892 11.283858,0.90428059 10.808937,0.84935282 10.112985,1.0708898 9.6355356,1.0708898 9.3658515,1.0708898 8.3089877,0.90050295 8.040833,0.92979413 7.9330767,0.94155872 6.6975343,1.2013748 6.5896535,1.21198 6.3571773,1.2348347 5.3260774,1.0844342 5.0906334,1.1022388 4.8077957,1.1236313 3.6324934,1.2957499 3.3488133,1.2957499 2.4302776,1.2375313 1.5353445,0.79676703 0.79187436,0.79375 Z"
       id="path874"
       sodipodi:nodetypes="csccccssssssssccccccccsscssssscc" />
    <path
       style="opacity:0.997;mix-blend-mode:normal;fill:none;fill-rule:evenodd;stroke:#8d8153;stroke-width:0.529;stroke-linecap:butt;stroke-linejoin:miter;stroke-miterlimit:4;stroke-dasharray:none;stroke-opacity:1"
       d="M 0.39916565,0.27936927 C 0.98844174,2.17758 0.21304055,3.7962217 0.32052674,5.3176604 0.44039077,7.0143068 0.84885768,8.6836036 1.0761416,10.085083 c 0.5354847,1.297009 -0.60990309,2.188441 -0.70158182,3.207234 -0.12115538,0.758506 0.42726782,1.188024 0.50113064,1.837478 0.0688593,0.461234 -0.26644437,1.05161 -0.46060969,1.464649 0.46278912,0.01178 1.53541177,-0.158005 1.68491947,-0.158005 h 1.1358956 c 0.1605666,0 0.3412183,-0.01999 0.5011303,0 0.3779766,0.04725 0.7112804,0.27158 1.1024867,0.200452 0.5857698,-0.106504 3.2904909,0.136029 3.8437977,-0.07151 0.046632,-0.01749 0.085319,-0.05474 0.1336349,-0.06682 0.1207442,-0.03019 0.3111336,0 0.4343128,0 0.3419247,0 0.695044,-0.02839 1.0356698,0 0.25714,0.02143 0.511249,0.0788 0.768399,0.100226 0.744264,0.06202 1.364713,-0.17102 2.071339,-0.334087 0.563708,-0.161329 1.135544,-0.08697 1.684827,0.03874 0.487251,0.111512 0.956754,0.263429 1.387094,0.327076 0.09422,-0.226017 0.367682,-0.840028 0.387763,-1.531071 -0.01252,-0.614903 -0.695494,-1.159088 -0.706332,-2.078461 -0.0072,-0.723378 0.727294,-1.694686 0.652657,-2.838348 -0.01179,-0.9226798 -0.539793,-3.9954159 -0.566266,-4.8425823 -0.06569,-2.5456028 0.952674,-2.3974924 0.626831,-4.95085898 -0.263118,0.0397116 -0.873666,0.28236665 -1.061146,0.34201935 -0.457703,0.1456328 -0.460111,0.1171902 -1.03567,0.1336348 -0.581605,0.016617 -1.200285,0.035577 -1.77066,-0.1002261 -0.447408,-0.1065221 -0.874739,-0.3131853 -1.336351,-0.3674926 -0.497475,-0.0585265 -1.226478,0.17752404 -1.7266023,0.17752404 -0.2824912,0 -1.3895453,-0.1815491 -1.6704347,-0.1503391 C 7.8795029,0.43686111 6.5852846,0.71369794 6.4722806,0.72499794 6.2287641,0.74934994 5.1486975,0.58909645 4.9020722,0.60806755 4.6058026,0.63086155 3.3746854,0.81425572 3.0775334,0.81425572 2.1153765,0.75222312 1.1779431,0.28258399 0.39916565,0.27936927 Z"
       id="path864"
       sodipodi:nodetypes="csccccssssssssccsccccccsscssssscc"
       clip-path="none"
       mask="none" />
  </g>
</svg>
