<?xml version="1.0" encoding="UTF-8" standalone="no"?>
<svg
   xmlns:dc="http://purl.org/dc/elements/1.1/"
   xmlns:cc="http://creativecommons.org/ns#"
   xmlns:rdf="http://www.w3.org/1999/02/22-rdf-syntax-ns#"
   xmlns:svg="http://www.w3.org/2000/svg"
   xmlns="http://www.w3.org/2000/svg"
   xmlns:sodipodi="http://sodipodi.sourceforge.net/DTD/sodipodi-0.dtd"
   xmlns:inkscape="http://www.inkscape.org/namespaces/inkscape"
   viewBox="0 0 32 32"
   version="1.1"
   id="svg8"
   inkscape:version="1.0.1 (3bc2e813f5, 2020-09-07)"
   sodipodi:docname="mapblock.svg">
  <defs
     id="defs2" />
  <sodipodi:namedview
     id="base"
     pagecolor="#ffffff"
     bordercolor="#666666"
     borderopacity="1.0"
     inkscape:pageopacity="0.0"
     inkscape:pageshadow="2"
     inkscape:zoom="3.959798"
     inkscape:cx="5.6797342"
     inkscape:cy="-0.17737057"
     inkscape:document-units="mm"
     inkscape:current-layer="layer1"
     inkscape:document-rotation="0"
     showgrid="false"
     units="mm"
     inkscape:window-width="1440"
     inkscape:window-height="837"
     inkscape:window-x="-8"
     inkscape:window-y="-8"
     inkscape:window-maximized="1">
    <inkscape:grid
       type="xygrid"
       id="grid46"
       units="mm"
       spacingx="0.99999997"
       spacingy="0.99999997"
       dotted="false"
       empspacing="4" />
  </sodipodi:namedview>
  <metadata
     id="metadata5">
    <rdf:RDF>
      <cc:Work
         rdf:about="">
        <dc:format>image/svg+xml</dc:format>
        <dc:type
           rdf:resource="http://purl.org/dc/dcmitype/StillImage" />
        <dc:title></dc:title>
      </cc:Work>
    </rdf:RDF>
  </metadata>
  <g
     inkscape:label="Layer 1"
     inkscape:groupmode="layer"
     id="layer1">
    <rect
       style="fill:#16502d;stroke-width:1.36364"
       id="rect52"
       width="30"
       height="30"
       x="0.99999994"
       y="0.99999994"
       ry="1.3636364" />
    <path
       style="fill:#217844;stroke:#000000;stroke-width:1px;stroke-linecap:butt;stroke-linejoin:miter;stroke-opacity:1"
       d="m 14.89975,1.6414979 c -0.08929,0.059524 -0.219693,0.015145 -0.315673,0.063134 C 10.960448,3.4881891 4.878206,4.868974 2.5885159,9.4070456 1.1806302,19.806984 12.452915,27.700974 23.738585,28.473665 27.526314,26.867861 28.541794,24.029384 30.052028,20.771257 31.029842,15.625744 31.075658,12.489863 29.231289,8.7125657 29.021226,8.3274504 28.897898,7.8887209 28.663078,7.5130096 25.609047,3.3087417 18.95167,0.23862155 14.89975,1.6414979 Z"
       id="path56"
       sodipodi:nodetypes="cccccccc" />
    <path
       style="fill:#165044;stroke:#000000;stroke-width:1px;stroke-linecap:butt;stroke-linejoin:miter;stroke-opacity:1"
       d="M 0.85231616,15.846768 C 0.85437979,18.617494 0.94582783,28.452832 0.99999994,31 2.1797086,30.946744 4.2551896,30.823465 6.029348,30.84122 8.5912006,30.98678 18.564564,31.277118 20.976449,31.062191 16.879043,30.119645 7.3799551,26.749026 6.3134534,25.095977 4.5641999,23.306305 2.1298091,21.237494 0.85231616,15.846768 Z"
       id="path58"
       sodipodi:nodetypes="cccccc" />
    <rect
       style="fill:#000000"
       id="rect24"
       width="1.9999999"
       height="31.999998"
       x="0"
       y="9.4734861e-07"
       ry="0.99999994" />
    <rect
       style="fill:#000000"
       id="rect26"
       width="1.9999999"
       height="31.999998"
       x="30"
       y="9.4734861e-07"
       ry="0.99999994" />
    <rect
       style="fill:#000000"
       id="rect28"
       width="31.999998"
       height="1.9999999"
       x="0"
       y="0"
       ry="0.99999994" />
    <rect
       style="fill:#000000"
       id="rect30"
       width="31.999998"
       height="1.9999999"
       x="0"
       y="29.999998"
       ry="0.99999994" />
    <path
       style="fill:#93ac9d;stroke:#000000;stroke-width:1px;stroke-linecap:butt;stroke-linejoin:miter;stroke-opacity:1"
       d="M 6.7857141,11.651786 C 1.2341895,17.317829 21.103758,30.677641 23.794651,23.303566 25.036574,19.063849 26.461702,13.268755 25.044643,8.9285714 24.632327,6.152014 20.817532,4.8631885 17.901786,4.9107143 13.827171,5.396825 9.8618509,8.850189 6.7857141,11.651786 Z"
       id="path44"
       sodipodi:nodetypes="ccccc" />
    <path
       style="fill:#bec8b7;stroke:#000000;stroke-width:1px;stroke-linecap:butt;stroke-linejoin:miter;stroke-opacity:1"
       d="M 14.375,8.9285714 C 11.85702,9.9773215 9.9827601,11.298639 9.6428569,14.017857 8.6700685,18.673483 13.222218,20.182709 16.964286,20.15625 20.775902,19.896494 23.230215,11.716374 20.803571,9.2857143 18.563834,7.583934 16.812475,8.1720656 14.375,8.9285714 Z"
       id="path42"
       sodipodi:nodetypes="ccccc" />
    <path
       style="fill:#dee3db;stroke:#000000;stroke-width:1px;stroke-linecap:butt;stroke-linejoin:miter;stroke-opacity:1"
       d="m 13.75,10.98214 c -0.146369,0.0959 -0.649011,0.718792 -0.714286,0.892857 -0.102372,0.272993 -0.236423,1.974318 -0.178571,2.321429 0.06734,0.404038 0.267562,0.471812 0.625,0.625 0.889491,0.38121 1.980382,0.576375 2.857143,0.08929 0.38498,-0.213877 0.561302,-0.196538 0.803571,-0.535714 0.07736,-0.108307 0.101209,-0.248835 0.178572,-0.357143 0.293484,-0.410878 0.47237,-0.590621 0.535714,-1.160714 0.06872,-0.618489 0.04001,-1.157658 -0.267857,-1.696429 -0.06827,-0.119477 -0.159269,-0.09713 -0.267857,-0.178571 -0.721427,-0.54107 -1.95067,-0.673047 -3.089286,-0.214287 C 13.91667,10.994 13.819883,10.93636 13.75,10.98214 Z"
       id="path36"
       sodipodi:nodetypes="cssssssssscc" />
  </g>
</svg>
