<?xml version="1.0" encoding="UTF-8" standalone="no"?>
<svg
   xmlns:dc="http://purl.org/dc/elements/1.1/"
   xmlns:cc="http://creativecommons.org/ns#"
   xmlns:rdf="http://www.w3.org/1999/02/22-rdf-syntax-ns#"
   xmlns:svg="http://www.w3.org/2000/svg"
   xmlns="http://www.w3.org/2000/svg"
   xmlns:sodipodi="http://sodipodi.sourceforge.net/DTD/sodipodi-0.dtd"
   xmlns:inkscape="http://www.inkscape.org/namespaces/inkscape"
   viewBox="0 0 32 32"
   version="1.1"
   id="svg8"
   inkscape:version="1.0.1 (3bc2e813f5, 2020-09-07)"
   sodipodi:docname="plus.svg">
  <defs
     id="defs2" />
  <sodipodi:namedview
     id="base"
     pagecolor="#ffffff"
     bordercolor="#666666"
     borderopacity="1.0"
     inkscape:pageopacity="0.0"
     inkscape:pageshadow="2"
     inkscape:zoom="3.959798"
     inkscape:cx="44.246959"
     inkscape:cy="71.538588"
     inkscape:document-units="mm"
     inkscape:current-layer="layer1"
     inkscape:document-rotation="0"
     showgrid="true"
     units="mm"
     inkscape:window-width="1346"
     inkscape:window-height="860"
     inkscape:window-x="52"
     inkscape:window-y="0"
     inkscape:window-maximized="0">
    <inkscape:grid
       type="xygrid"
       id="grid46" />
  </sodipodi:namedview>
  <metadata
     id="metadata5">
    <rdf:RDF>
      <cc:Work
         rdf:about="">
        <dc:format>image/svg+xml</dc:format>
        <dc:type
           rdf:resource="http://purl.org/dc/dcmitype/StillImage" />
        <dc:title />
      </cc:Work>
    </rdf:RDF>
  </metadata>
  <g
     inkscape:label="Layer 1"
     inkscape:groupmode="layer"
     id="layer1">
    <path
       style="fill:#000000;stroke-width:0.264583"
       d="m 14.552083,1.3229167 c -0.732896,0 -1.322916,0.5900207 -1.322916,1.3229166 V 13.229167 H 2.6458336 c -0.7328957,0 -1.3229166,0.590021 -1.3229166,1.322916 v 2.645833 c 0,0.732897 0.5900209,1.322917 1.3229166,1.322917 H 13.229167 v 10.583333 c 0,0.732896 0.59002,1.322917 1.322916,1.322917 h 2.645834 c 0.732896,0 1.322916,-0.590021 1.322916,-1.322917 V 18.520833 h 10.583333 c 0.732896,0 1.322917,-0.59002 1.322917,-1.322917 v -2.645833 c 0,-0.732895 -0.590021,-1.322916 -1.322917,-1.322916 H 18.520833 V 2.6458333 c 0,-0.7328959 -0.59002,-1.3229166 -1.322916,-1.3229166 z"
       id="rect48" />
  </g>
</svg>
