<?xml version="1.0" encoding="UTF-8" standalone="no"?>
<svg
   xmlns:dc="http://purl.org/dc/elements/1.1/"
   xmlns:cc="http://creativecommons.org/ns#"
   xmlns:rdf="http://www.w3.org/1999/02/22-rdf-syntax-ns#"
   xmlns:svg="http://www.w3.org/2000/svg"
   xmlns="http://www.w3.org/2000/svg"
   xmlns:sodipodi="http://sodipodi.sourceforge.net/DTD/sodipodi-0.dtd"
   xmlns:inkscape="http://www.inkscape.org/namespaces/inkscape"
   viewBox="0 0 32 32"
   version="1.1"
   id="svg8"
   inkscape:version="1.0.1 (3bc2e813f5, 2020-09-07)"
   sodipodi:docname="elevation.svg">
  <defs
     id="defs2" />
  <sodipodi:namedview
     id="base"
     pagecolor="#ffffff"
     bordercolor="#666666"
     borderopacity="1.0"
     inkscape:pageopacity="0.0"
     inkscape:pageshadow="2"
     inkscape:zoom="11.2"
     inkscape:cx="22.697335"
     inkscape:cy="16.96263"
     inkscape:document-units="mm"
     inkscape:current-layer="layer1"
     inkscape:document-rotation="0"
     showgrid="false"
     units="mm"
     inkscape:window-width="1440"
     inkscape:window-height="837"
     inkscape:window-x="-8"
     inkscape:window-y="-8"
     inkscape:window-maximized="1"
     showguides="false">
    <inkscape:grid
       type="xygrid"
       id="grid46"
       units="mm"
       spacingx="0.99999997"
       spacingy="0.99999997"
       dotted="false"
       empspacing="4" />
  </sodipodi:namedview>
  <metadata
     id="metadata5">
    <rdf:RDF>
      <cc:Work
         rdf:about="">
        <dc:format>image/svg+xml</dc:format>
        <dc:type
           rdf:resource="http://purl.org/dc/dcmitype/StillImage" />
        <dc:title></dc:title>
      </cc:Work>
    </rdf:RDF>
  </metadata>
  <g
     inkscape:label="Layer 1"
     inkscape:groupmode="layer"
     id="layer1">
    <path
       style="fill:#1a1a1a;stroke:#000000;stroke-width:0.801919px;stroke-linecap:butt;stroke-linejoin:miter;stroke-opacity:1"
       d="M 7.4419417,18.984216 C 6.1156362,6.3895428 16.811909,4.0811388 20.791086,4.078 25.093701,3.6662152 31.885059,8.9437948 31.441941,19.984216 29.243369,27.773667 24.21866,31.493112 20.862012,31.110727 16.559236,30.010286 10.493059,30.358927 7.4419417,18.984216 Z"
       id="path60"
       sodipodi:nodetypes="ccccc" />
    <path
       style="fill:#4d4d4d;stroke:#000000;stroke-width:0.801919px;stroke-linecap:butt;stroke-linejoin:miter;stroke-opacity:1"
       d="m 14.441942,6.984217 c -3,4 -4.257437,4.31618 -4,9 2.601462,10.781809 11.695471,10.609654 17.199359,4.138254 1.463568,-2.206631 1.070037,-7.406704 -0.19936,-10.1382542 -1.757809,-3.2651902 -1.956808,-1.5880848 -4,-3.9999998 -2.771689,-3.0509919 -7.121245,-1.9855705 -8.999999,1 z"
       id="path56"
       sodipodi:nodetypes="cccccc" />
    <path
       style="fill:#808080;stroke:#000000;stroke-width:0.801919px;stroke-linecap:butt;stroke-linejoin:miter;stroke-opacity:1"
       d="M 13.466873,10.659008 C 12.653467,19.5879 26.102544,19.597198 25.047152,10.871647 24.298057,6.0497651 23.498208,6.8904369 21.477916,3.670791 20.365745,2.7265982 18.400636,2.0338858 17.441941,3.9842171 15.694469,7.0477219 14.023466,6.0326415 13.466873,10.659008 Z"
       id="path44"
       sodipodi:nodetypes="ccccc" />
    <path
       style="fill:#b3b3b3;stroke:#000000;stroke-width:0.642651px;stroke-linecap:butt;stroke-linejoin:miter;stroke-opacity:1"
       d="M 17.312032,4.0592615 C 16.466579,5.7318224 15.655572,6.9128813 16.348916,8.7118083 17.353779,11.952049 20.450475,9.8904877 22.18689,8.3398935 23.882649,6.6183996 21.812474,2.4578053 19.919649,1.9694167 18.342295,1.8492242 18.211499,2.5980696 17.312032,4.0592615 Z"
       id="path42"
       sodipodi:nodetypes="ccccc" />
    <path
       style="fill:#e6e6e6;stroke:#000000;stroke-width:0.513075px;stroke-linecap:butt;stroke-linejoin:miter;stroke-opacity:1"
       d="m 18.284271,3.1935697 c -0.03819,0.075561 -0.07742,0.4492397 -0.05333,0.5340121 0.03778,0.1329512 0.508243,0.8298066 0.643952,0.9497134 0.157965,0.1395714 0.272547,0.1136047 0.487187,0.079774 0.534134,-0.084189 1.103888,-0.2933897 1.360086,-0.7120205 0.112495,-0.1838186 0.200134,-0.2231582 0.206841,-0.4184189 0.0021,-0.062351 -0.03076,-0.1232496 -0.02862,-0.1856018 0.0081,-0.2365386 0.03522,-0.353213 -0.113833,-0.5915367 C 20.624843,2.5909366 20.442558,2.3887024 20.130243,2.2595847 20.060985,2.2309503 19.875102,1.5939259 19.798962,1.5906453 19.293108,1.5687214 18.829099,2.5081654 18.441941,2.9842171 18.365691,3.1546402 18.302514,3.1575149 18.284273,3.1935884 Z"
       id="path36"
       sodipodi:nodetypes="csssssssssccc" />
    <path
       style="fill:#000000;stroke:#000000;stroke-width:1px;stroke-linecap:butt;stroke-linejoin:miter;stroke-opacity:1"
       d="M 1.4419419,6.984217 4.4419418,3.9842171 7.4419417,6.984217 H 5.4419418 v 17.999999 h 1.9999999 l -2.9999999,3 -3,-3 h 2 V 6.984217 Z"
       id="path64" />
  </g>
</svg>
